{"title":"Oblivion  2013 Cam XviD Feel-Free","uid":8371785,"size":1030716480,"categoryP":"video","categoryS":"movies","magnet":"?xt=urn:btih:0358afcd580b41bd260a063f2798528b968f0b3e&amp;dn=Oblivion++2013+Cam+XviD+Feel-Free&amp;tr=udp%3A%2F%2Ftracker.openbittorrent.com%3A80&amp;tr=udp%3A%2F%2Fopen.demonii.com%3A1337&amp;tr=udp%3A%2F%2Ftracker.coppersurfer.tk%3A6969&amp;tr=udp%3A%2F%2Fexodus.desync.com%3A6969","seeders":1,"leechers":0,"uploader":"Gh0stNet","files":6,"time":1365939103,"description":"Source:Fox&amp; MiLLENiUM Thanks\nSample:Never\nEncoder:Tony\n\nFormat                                   : AVI\nFormat/Info                              : Audio Video Interleave\nFile size                                : 982 MiB\nDuration                                 : 1h 57mn\nOverall bit rate                         : 1 173 Kbps\nWriting library                          : VirtualDub build 32817/release\n\nVideo\nID                                       : 0\nFormat                                   : MPEG-4 Visual\nFormat profile                           : Advanced Simple@L5\nFormat settings, BVOP                    : 2\nFormat settings, QPel                    : No\nFormat settings, GMC                     : No warppoints\nFormat settings, Matrix                  : Default (H.263)\nMuxing mode                              : Packed bitstream\nCodec ID                                 : XVID\nCodec ID/Hint                            : XviD\nDuration                                 : 1h 57mn\nBit rate                                 : 1 036 Kbps\nWidth                                    : 640 pixels\nHeight                                   : 248 pixels\nDisplay aspect ratio                     : 2.581\nFrame rate                               : 25.000 fps\nColor space                              : YUV\nChroma subsampling                       : 4:2:0\nBit depth                                : 8 bits\nScan type                                : Progressive\nCompression mode                         : Lossy\nBits/(Pixel*Frame)                       : 0.261\nStream size                              : 867 MiB (88%)\nWriting library                          : XviD 64\n\nAudio\nID                                       : 1\nFormat                                   : MPEG Audio\nFormat version                           : Version 1\nFormat profile                           : Layer 3\nMode                                     : Joint stereo\nMode extension                           : MS Stereo\nCodec ID                                 : 55\nCodec ID/Hint                            : MP3\nDuration                                 : 1h 57mn\nBit rate mode                            : Constant\nBit rate                                 : 128 Kbps\nChannel(s)                               : 2 channels\nSampling rate                            : 48.0 KHz\nCompression mode                         : Lossy\nStream size                              : 107 MiB (11%)\nAlignment                                : Split accross interleaves\nInterleave, duration                     : 40 ms (1.00 video frame)\nInterleave, preload duration             : 500 ms\nWriting library                          : LAME3.98r\nEncoding settings                        : -m j -V 4 -q 3 -lowpass 17 -b 128\n\nScreens: &lt;a href=&quot;\nhttp://i.imgur.com/YPAg2oL.png&quot; rel=&quot;nofollow&quot; target=&quot;_NEW&quot;&gt;\nhttp://i.imgur.com/YPAg2oL.png&lt;/a&gt; &lt;a href=&quot;\nhttp://i.imgur.com/qyAO00S.png&quot; rel=&quot;nofollow&quot; target=&quot;_NEW&quot;&gt;\nhttp://i.imgur.com/qyAO00S.png&lt;/a&gt; &lt;a href=&quot;\nhttp://i.imgur.com/0vmbAO5.png&quot; rel=&quot;nofollow&quot; target=&quot;_NEW&quot;&gt;\nhttp://i.imgur.com/0vmbAO5.png&lt;/a&gt; &lt;a href=&quot;\nhttp://i.imgur.com/xtKqSWx.png&quot; rel=&quot;nofollow&quot; target=&quot;_NEW&quot;&gt;\nhttp://i.imgur.com/xtKqSWx.png&lt;/a&gt;","torrent":{"xt":"urn:btih:0358afcd580b41bd260a063f2798528b968f0b3e","amp;dn":"Oblivion++2013+Cam+XviD+Feel-Free","amp;tr":["udp%3A%2F%2Ftracker.openbittorrent.com%3A80","udp%3A%2F%2Fopen.demonii.com%3A1337","udp%3A%2F%2Ftracker.coppersurfer.tk%3A6969","udp%3A%2F%2Fexodus.desync.com%3A6969"],"infoHash":"0358afcd580b41bd260a063f2798528b968f0b3e","infoHashBuffer":{"type":"Buffer","data":[3,88,175,205,88,11,65,189,38,10,6,63,39,152,82,139,150,143,11,62]},"announce":[],"urlList":[]}}